<svg width="300" height="400" viewBox="0 0 300 400" xmlns="http://www.w3.org/2000/svg">
  <!-- 背景 -->
  <rect width="300" height="400" fill="#ffffff" stroke="#e5e7eb" stroke-width="1"/>
  
  <!-- 顶部技术感边框 -->
  <rect x="0" y="0" width="300" height="4" fill="#3b82f6"/>
  <rect x="0" y="0" width="4" height="400" fill="#3b82f6"/>
  <rect x="296" y="0" width="4" height="400" fill="#3b82f6"/>
  
  <!-- 姓名区域 -->
  <rect x="20" y="25" width="100" height="14" fill="#1f2937" rx="2"/>
  <rect x="20" y="45" width="70" height="8" fill="#6b7280" rx="2"/>
  
  <!-- 代码风格装饰 -->
  <rect x="200" y="25" width="60" height="20" fill="#f3f4f6" stroke="#d1d5db" stroke-width="1" rx="4"/>
  <rect x="205" y="30" width="8" height="4" fill="#ef4444" rx="1"/>
  <rect x="215" y="30" width="8" height="4" fill="#f59e0b" rx="1"/>
  <rect x="225" y="30" width="8" height="4" fill="#10b981" rx="1"/>
  <rect x="205" y="36" width="50" height="2" fill="#9ca3af" rx="1"/>
  
  <!-- 联系信息 - 终端风格 -->
  <rect x="20" y="75" width="260" height="50" fill="#1f2937" rx="4"/>
  <rect x="25" y="80" width="6" height="6" fill="#ef4444" rx="3"/>
  <rect x="35" y="80" width="6" height="6" fill="#f59e0b" rx="3"/>
  <rect x="45" y="80" width="6" height="6" fill="#10b981" rx="3"/>
  
  <rect x="25" y="95" width="80" height="4" fill="#10b981" rx="1"/>
  <rect x="25" y="105" width="100" height="4" fill="#10b981" rx="1"/>
  <rect x="25" y="115" width="90" height="4" fill="#10b981" rx="1"/>
  
  <!-- 技能区域 - 进度条样式 -->
  <rect x="20" y="145" width="50" height="10" fill="#1f2937" rx="2"/>
  
  <rect x="20" y="165" width="40" height="6" fill="#374151" rx="1"/>
  <rect x="70" y="165" width="180" height="6" fill="#e5e7eb" rx="3"/>
  <rect x="70" y="165" width="140" height="6" fill="#3b82f6" rx="3"/>
  
  <rect x="20" y="180" width="50" height="6" fill="#374151" rx="1"/>
  <rect x="70" y="180" width="180" height="6" fill="#e5e7eb" rx="3"/>
  <rect x="70" y="180" width="160" height="6" fill="#10b981" rx="3"/>
  
  <rect x="20" y="195" width="45" height="6" fill="#374151" rx="1"/>
  <rect x="70" y="195" width="180" height="6" fill="#e5e7eb" rx="3"/>
  <rect x="70" y="195" width="120" height="6" fill="#f59e0b" rx="3"/>
  
  <!-- 项目经验 - 卡片样式 -->
  <rect x="20" y="225" width="60" height="10" fill="#1f2937" rx="2"/>
  
  <rect x="20" y="245" width="260" height="40" fill="#f8fafc" stroke="#e2e8f0" stroke-width="1" rx="4"/>
  <rect x="25" y="250" width="80" height="8" fill="#374151" rx="1"/>
  <rect x="25" y="262" width="60" height="6" fill="#6b7280" rx="1"/>
  <rect x="25" y="272" width="200" height="4" fill="#9ca3af" rx="1"/>
  
  <rect x="20" y="295" width="260" height="40" fill="#f8fafc" stroke="#e2e8f0" stroke-width="1" rx="4"/>
  <rect x="25" y="300" width="75" height="8" fill="#374151" rx="1"/>
  <rect x="25" y="312" width="55" height="6" fill="#6b7280" rx="1"/>
  <rect x="25" y="322" width="180" height="4" fill="#9ca3af" rx="1"/>
  
  <!-- 底部装饰 -->
  <rect x="20" y="355" width="260" height="2" fill="#e5e7eb"/>
  <rect x="20" y="365" width="30" height="6" fill="#3b82f6" rx="1"/>
  <rect x="60" y="365" width="40" height="6" fill="#10b981" rx="1"/>
  <rect x="110" y="365" width="35" height="6" fill="#f59e0b" rx="1"/>
</svg>