<svg width="300" height="400" viewBox="0 0 300 400" xmlns="http://www.w3.org/2000/svg">
  <!-- 背景 -->
  <rect width="300" height="400" fill="#ffffff" stroke="#e5e7eb" stroke-width="1"/>
  
  <!-- 顶部装饰波浪 -->
  <path d="M0,0 Q75,20 150,0 T300,0 L300,40 L0,40 Z" fill="#f0fdf4"/>
  <path d="M0,35 Q75,15 150,35 T300,35 L300,40 L0,40 Z" fill="#dcfce7"/>
  
  <!-- 姓名 -->
  <rect x="30" y="60" width="110" height="16" fill="#166534" rx="2"/>
  
  <!-- 职位 -->
  <rect x="30" y="85" width="80" height="10" fill="#16a34a" rx="2"/>
  
  <!-- 装饰性图标区域 -->
  <circle cx="230" cy="75" r="15" fill="#f0fdf4" stroke="#22c55e" stroke-width="2"/>
  <rect x="225" y="70" width="10" height="10" fill="#22c55e" rx="1"/>
  
  <!-- 联系信息 - 清新样式 -->
  <rect x="30" y="115" width="240" height="1" fill="#d1fae5"/>
  
  <circle cx="40" cy="135" r="4" fill="#22c55e"/>
  <rect x="50" y="132" width="80" height="6" fill="#374151" rx="1"/>
  
  <circle cx="40" cy="155" r="4" fill="#22c55e"/>
  <rect x="50" y="152" width="100" height="6" fill="#374151" rx="1"/>
  
  <circle cx="40" cy="175" r="4" fill="#22c55e"/>
  <rect x="50" y="172" width="90" height="6" fill="#374151" rx="1"/>
  
  <!-- 个人简介 - 文艺风格 -->
  <rect x="30" y="200" width="70" height="10" fill="#166534" rx="2"/>
  
  <rect x="30" y="220" width="240" height="4" fill="#9ca3af" rx="1"/>
  <rect x="30" y="230" width="220" height="4" fill="#9ca3af" rx="1"/>
  <rect x="30" y="240" width="180" height="4" fill="#9ca3af" rx="1"/>
  
  <!-- 教育背景 - 书本风格 -->
  <rect x="30" y="265" width="70" height="10" fill="#166534" rx="2"/>
  
  <rect x="30" y="285" width="240" height="30" fill="#f9fafb" stroke="#d1d5db" stroke-width="1" rx="4"/>
  <rect x="35" y="290" width="80" height="8" fill="#374151" rx="1"/>
  <rect x="35" y="302" width="70" height="6" fill="#6b7280" rx="1"/>
  <rect x="200" y="290" width="30" height="20" fill="#fef3c7" stroke="#f59e0b" stroke-width="1" rx="2"/>
  <rect x="205" y="295" width="20" height="4" fill="#f59e0b" rx="1"/>
  <rect x="205" y="301" width="15" height="4" fill="#f59e0b" rx="1"/>
  
  <!-- 技能 - 花朵样式 -->
  <rect x="30" y="330" width="40" height="10" fill="#166534" rx="2"/>
  
  <circle cx="50" cy="360" r="12" fill="#dcfce7" stroke="#22c55e" stroke-width="2"/>
  <rect x="45" y="357" width="10" height="4" fill="#22c55e" rx="1"/>
  
  <circle cx="90" cy="360" r="12" fill="#dbeafe" stroke="#3b82f6" stroke-width="2"/>
  <rect x="85" y="357" width="10" height="4" fill="#3b82f6" rx="1"/>
  
  <circle cx="130" cy="360" r="12" fill="#fef3c7" stroke="#f59e0b" stroke-width="2"/>
  <rect x="125" y="357" width="10" height="4" fill="#f59e0b" rx="1"/>
  
  <!-- 底部装饰 -->
  <path d="M0,380 Q75,370 150,380 T300,380 L300,400 L0,400 Z" fill="#f0fdf4"/>
</svg>