<svg width="300" height="400" viewBox="0 0 300 400" xmlns="http://www.w3.org/2000/svg">
  <!-- 背景 -->
  <rect width="300" height="400" fill="#ffffff" stroke="#e5e7eb" stroke-width="1"/>
  
  <!-- 头部区域 -->
  <rect x="0" y="0" width="300" height="80" fill="#1f2937"/>
  
  <!-- 头像占位 -->
  <circle cx="50" cy="40" r="25" fill="#6b7280"/>
  
  <!-- 姓名 -->
  <rect x="90" y="25" width="80" height="12" fill="#ffffff" rx="2"/>
  
  <!-- 职位 -->
  <rect x="90" y="45" width="60" height="8" fill="#9ca3af" rx="2"/>
  
  <!-- 联系信息 -->
  <rect x="20" y="100" width="260" height="1" fill="#e5e7eb"/>
  <rect x="20" y="115" width="50" height="6" fill="#374151" rx="1"/>
  <rect x="80" y="115" width="80" height="6" fill="#6b7280" rx="1"/>
  <rect x="20" y="130" width="40" height="6" fill="#374151" rx="1"/>
  <rect x="70" y="130" width="90" height="6" fill="#6b7280" rx="1"/>
  
  <!-- 个人简介 -->
  <rect x="20" y="155" width="60" height="8" fill="#1f2937" rx="2"/>
  <rect x="20" y="175" width="260" height="4" fill="#9ca3af" rx="1"/>
  <rect x="20" y="185" width="240" height="4" fill="#9ca3af" rx="1"/>
  <rect x="20" y="195" width="200" height="4" fill="#9ca3af" rx="1"/>
  
  <!-- 工作经验 -->
  <rect x="20" y="220" width="60" height="8" fill="#1f2937" rx="2"/>
  <rect x="20" y="240" width="80" height="6" fill="#374151" rx="1"/>
  <rect x="20" y="252" width="100" height="4" fill="#6b7280" rx="1"/>
  <rect x="20" y="262" width="180" height="4" fill="#9ca3af" rx="1"/>
  <rect x="20" y="272" width="160" height="4" fill="#9ca3af" rx="1"/>
  
  <!-- 教育背景 -->
  <rect x="20" y="295" width="60" height="8" fill="#1f2937" rx="2"/>
  <rect x="20" y="315" width="70" height="6" fill="#374151" rx="1"/>
  <rect x="20" y="327" width="90" height="4" fill="#6b7280" rx="1"/>
  <rect x="20" y="337" width="120" height="4" fill="#9ca3af" rx="1"/>
  
  <!-- 技能 -->
  <rect x="20" y="360" width="40" height="8" fill="#1f2937" rx="2"/>
  <rect x="20" y="375" width="30" height="6" fill="#3b82f6" rx="1"/>
  <rect x="60" y="375" width="40" height="6" fill="#10b981" rx="1"/>
  <rect x="110" y="375" width="35" height="6" fill="#f59e0b" rx="1"/>
</svg>